<?xml version="1.0" standalone="no"?>
<!DOCTYPE svg PUBLIC "-//W3C//DTD SVG 20010904//EN"
 "http://www.w3.org/TR/2001/REC-SVG-20010904/DTD/svg10.dtd">
<svg version="1.0" xmlns="http://www.w3.org/2000/svg"
 width="24.000000pt" height="24.000000pt" viewBox="0 0 24.000000 24.000000"
 preserveAspectRatio="xMidYMid meet">

<g transform="translate(0.000000,24.000000) scale(0.100000,-0.100000)"
fill="#000000" stroke="none">
<path d="M104 158 c-70 -71 -115 -141 -100 -155 2 -2 17 -1 32 3 30 7 204 169
204 189 0 14 -32 45 -46 45 -5 0 -46 -37 -90 -82z m110 30 c-3 -5 -12 -4 -20
3 -7 6 -11 15 -8 21 3 5 12 4 20 -3 7 -6 11 -15 8 -21z m-34 -14 c11 -13 5
-23 -41 -70 -67 -69 -83 -78 -99 -59 -10 12 -1 26 51 80 34 36 65 65 69 65 4
0 13 -7 20 -16z"/>
</g>
</svg>
